<?xml version="1.0"?>
<svg xmlns="http://www.w3.org/2000/svg" xmlns:svg="http://www.w3.org/2000/svg" xmlns:xlink="http://www.w3.org/1999/xlink" width="1220" height="450" preserveAspectRatio="xMidYMid meet" transform="translate3d(0px, 0px, 0px)" viewBox="0 0 1220 450">
<defs>
    <clipPath id="__lottie_element_4">
    <rect height="450" id="svg_1" width="1220" x="0" y="0"/>
    </clipPath>
    <clipPath id="__lottie_element_9">
    <path clip-rule="nonzero" d="m450.46,31.78c0,0 -316.49,0 -316.49,0c0,0 0,85.81 0,85.81c0,0 316.49,0 316.49,0c0,0 0,-85.81 0,-85.81" fill="#ffffff" id="svg_2"/>
    </clipPath>
    <clipPath id="__lottie_element_20">
    <path d="m0,0l750,0l0,750l-750,0l0,-750z" id="svg_3"/>
    </clipPath>
    <symbol xmlns="http://www.w3.org/2000/svg" id="svg_211" viewBox="0 0 51.04 49.47">
    <defs>
    <style>.cls-1,.cls-3{fill:none;}.cls-1,.cls-2{stroke:#fff;}.cls-1{stroke-linecap:round;stroke-miterlimit:10;stroke-width:4px;}.cls-2{fill:#fff;stroke-linejoin:round;}</style>
    </defs>
    <g data-name="Calque 2" id="svg_209">
    <g data-name="Calque 1" id="svg_210">
    <path class="cls-1" d="m30.81,10.68a16.72,16.72 0 1 1 -19.32,25.32"/>
    <polygon class="cls-2" points="22.43 7.64 30.2 17.38 34.77 5.93 22.43 7.64"/>
    <rect class="cls-3" height="49.47" width="51.04"/>
    </g>
    </g>
    </symbol>
</defs>
<g class="layer">
    <title>Layer 1</title>
    <g clip-path="url(#__lottie_element_4)" id="svg_4">
    <g display="none" id="svg_5" opacity="0.03" transform="matrix(1,0,0,0.9999983310699463,605.5,204.5000457763672)">
    <g id="svg_6" transform="matrix(1,0,0,1,-365.875,-138.281005859375)">
    <path d="m2,-1.78c0,0 0,3.56 0,3.56c0,0 -4,0 -4,0c0,0 0,-3.56 0,-3.56c0,0 4,0 4,0z" fill="#F94615" id="svg_7"/>
    <path d="m2,-1.78c0,0 0,3.56 0,3.56c0,0 -4,0 -4,0c0,0 0,-3.56 0,-3.56c0,0 4,0 4,0z" fill-opacity="0" id="svg_8" stroke="#1F1546" stroke-miterlimit="4" stroke-width="0px"/>
    </g>
    <g id="svg_9" transform="matrix(1,0,0,1,-366.343994140625,-129.75)">
    <path d="m2.53,-7.06c0,0 0,14.12 0,14.12c0,0 -5.06,0 -5.06,0c0,0 0,-14.12 0,-14.12c0,0 5.06,0 5.06,0z" fill="#F94615" id="svg_10"/>
    <path d="m2.53,-7.06c0,0 0,14.12 0,14.12c0,0 -5.06,0 -5.06,0c0,0 0,-14.12 0,-14.12c0,0 5.06,0 5.06,0z" fill-opacity="0" id="svg_11" stroke="#1F1546" stroke-miterlimit="4" stroke-width="0px"/>
    </g>
    <g id="svg_12" transform="matrix(1,0,0,1,-366.281005859375,-111.03099822998047)">
    <path d="m2.91,-11.59c0,0 0,23.18 0,23.18c0,0 -5.82,0 -5.82,0c0,0 0,-23.18 0,-23.18c0,0 5.82,0 5.82,0z" fill="#F94615" id="svg_13"/>
    <path d="m2.91,-11.59c0,0 0,23.18 0,23.18c0,0 -5.82,0 -5.82,0c0,0 0,-23.18 0,-23.18c0,0 5.82,0 5.82,0z" fill-opacity="0" id="svg_14" stroke="#1F1546" stroke-miterlimit="4" stroke-width="0px"/>
    </g>
    <g id="svg_15" transform="matrix(1,0,0,1,-365.5,-98.18800354003906)">
    <path d="m2,-0.94c0,0 0,1.88 0,1.88c0,0 -4,0 -4,0c0,0 0,-1.88 0,-1.88c0,0 4,0 4,0z" fill="#F94615" id="svg_16"/>
    <path d="m2,-0.94c0,0 0,1.88 0,1.88c0,0 -4,0 -4,0c0,0 0,-1.88 0,-1.88c0,0 4,0 4,0z" fill-opacity="0" id="svg_17" stroke="#1F1546" stroke-miterlimit="4" stroke-width="0px"/>
    </g>
    <g id="svg_18" transform="matrix(1,0,0,1,-366.43798828125,-83.93800354003906)">
    <path d="m3.13,-13.13c0,0 0,26.26 0,26.26c0,0 -6.26,0 -6.26,0c0,0 0,-26.26 0,-26.26c0,0 6.26,0 6.26,0z" fill="#F94615" id="svg_19"/>
    <path d="m3.13,-13.13c0,0 0,26.26 0,26.26c0,0 -6.26,0 -6.26,0c0,0 0,-26.26 0,-26.26c0,0 6.26,0 6.26,0z" fill-opacity="0" id="svg_20" stroke="#1F1546" stroke-miterlimit="4" stroke-width="0px"/>
    </g>
    <g id="svg_21" transform="matrix(1,0,0,1,-366.81201171875,-45.65599822998047)">
    <path d="m3.13,-14.53c0,0 0,29.06 0,29.06c0,0 -6.26,0 -6.26,0c0,0 0,-29.06 0,-29.06c0,0 6.26,0 6.26,0z" fill="#F94615" id="svg_22"/>
    <path d="m3.13,-14.53c0,0 0,29.06 0,29.06c0,0 -6.26,0 -6.26,0c0,0 0,-29.06 0,-29.06c0,0 6.26,0 6.26,0z" fill-opacity="0" id="svg_23" stroke="#1F1546" stroke-miterlimit="4" stroke-width="0px"/>
    </g>
    <g id="svg_24" transform="matrix(1,0,0,1,-367.06201171875,0.5)">
    <path d="m3.19,-14.75c0,0 0,29.5 0,29.5c0,0 -6.38,0 -6.38,0c0,0 0,-29.5 0,-29.5c0,0 6.38,0 6.38,0z" fill="#F94615" id="svg_25"/>
    <path d="m3.19,-14.75c0,0 0,29.5 0,29.5c0,0 -6.38,0 -6.38,0c0,0 0,-29.5 0,-29.5c0,0 6.38,0 6.38,0z" fill-opacity="0" id="svg_26" stroke="#1F1546" stroke-miterlimit="4" stroke-width="0px"/>
    </g>
    <g id="svg_27" transform="matrix(1,0,0,1,-366.906005859375,49.53099822998047)">
    <path d="m3.22,-14.41c0,0 0,28.82 0,28.82c0,0 -6.44,0 -6.44,0c0,0 0,-28.82 0,-28.82c0,0 6.44,0 6.44,0z" fill="#F94615" id="svg_28"/>
    <path d="m3.22,-14.41c0,0 0,28.82 0,28.82c0,0 -6.44,0 -6.44,0c0,0 0,-28.82 0,-28.82c0,0 6.44,0 6.44,0z" fill-opacity="0" id="svg_29" stroke="#1F1546" stroke-miterlimit="4" stroke-width="0px"/>
    </g>
    <g id="svg_30" transform="matrix(1,0,0,1,-366.781005859375,95.68800354003906)">
    <path d="m3.16,-14.06c0,0 0,28.12 0,28.12c0,0 -6.32,0 -6.32,0c0,0 0,-28.12 0,-28.12c0,0 6.32,0 6.32,0z" fill="#F94615" id="svg_31"/>
    <path d="m3.16,-14.06c0,0 0,28.12 0,28.12c0,0 -6.32,0 -6.32,0c0,0 0,-28.12 0,-28.12c0,0 6.32,0 6.32,0z" fill-opacity="0" id="svg_32" stroke="#1F1546" stroke-miterlimit="4" stroke-width="0px"/>
    </g>
    <g id="svg_33" transform="matrix(1,0,0,1,-366.718994140625,134.468994140625)">
    <path d="m3.09,-13.28c0,0 0,26.56 0,26.56c0,0 -6.18,0 -6.18,0c0,0 0,-26.56 0,-26.56c0,0 6.18,0 6.18,0z" fill="#F94615" id="svg_34"/>
    <path d="m3.09,-13.28c0,0 0,26.56 0,26.56c0,0 -6.18,0 -6.18,0c0,0 0,-26.56 0,-26.56c0,0 6.18,0 6.18,0z" fill-opacity="0" id="svg_35" stroke="#1F1546" stroke-miterlimit="4" stroke-width="0px"/>
    </g>
    <g id="svg_36" transform="matrix(1,0,0,1,-366.031005859375,149)">
    <path d="m2.03,-1.13c0,0 0,2.26 0,2.26c0,0 -4.06,0 -4.06,0c0,0 0,-2.26 0,-2.26c0,0 4.06,0 4.06,0z" fill="#F94615" id="svg_37"/>
    <path d="m2.03,-1.13c0,0 0,2.26 0,2.26c0,0 -4.06,0 -4.06,0c0,0 0,-2.26 0,-2.26c0,0 4.06,0 4.06,0z" fill-opacity="0" id="svg_38" stroke="#1F1546" stroke-miterlimit="4" stroke-width="0px"/>
    </g>
    <g id="svg_39" transform="matrix(1,0,0,1,-366.81201171875,162.656005859375)">
    <path d="m2.94,-12.28c0,0 0,24.56 0,24.56c0,0 -5.88,0 -5.88,0c0,0 0,-24.56 0,-24.56c0,0 5.88,0 5.88,0z" fill="#F94615" id="svg_40"/>
    <path d="m2.94,-12.28c0,0 0,24.56 0,24.56c0,0 -5.88,0 -5.88,0c0,0 0,-24.56 0,-24.56c0,0 5.88,0 5.88,0z" fill-opacity="0" id="svg_41" stroke="#1F1546" stroke-miterlimit="4" stroke-width="0px"/>
    </g>
    <g id="svg_42" transform="matrix(1,0,0,1,-366.43798828125,183.375)">
    <path d="m2.5,-8.44c0,0 0,16.88 0,16.88c0,0 -5,0 -5,0c0,0 0,-16.88 0,-16.88c0,0 5,0 5,0z" fill="#F94615" id="svg_43"/>
    <path d="m2.5,-8.44c0,0 0,16.88 0,16.88c0,0 -5,0 -5,0c0,0 0,-16.88 0,-16.88c0,0 5,0 5,0z" fill-opacity="0" id="svg_44" stroke="#1F1546" stroke-miterlimit="4" stroke-width="0px"/>
    </g>
    </g>
    <g clip-path="url(#__lottie_element_20)" display="block" id="svg_45" transform="matrix(0.5199999809265137,0,0,0.5199999809265137,47.125,29.811996459960938)">
    <g display="block" id="svg_46" transform="matrix(8.149662017822266,0,0,8.149974822998047,56.01120376586914,58.996788024902344)">
    <g id="svg_47" transform="matrix(1,0,0,1,62.965999603271484,69.20500183105469)">
        <path d="m0,0.47c-0.26,0 -0.48,-0.21 -0.48,-0.47c0,-0.26 0.22,-0.47 0.48,-0.47c0.26,0 0.48,0.21 0.48,0.47c0,0.26 -0.22,0.47 -0.48,0.47z" fill="#F94615" id="svg_48"/>
    </g>
    <g id="svg_49" transform="matrix(1,0,0,1,55.57699966430664,73.40899658203125)">
        <path d="m0,0.74c-0.41,0 -0.74,-0.33 -0.74,-0.74c0,-0.41 0.33,-0.74 0.74,-0.74c0.41,0 0.74,0.33 0.74,0.74c0,0.41 -0.33,0.74 -0.74,0.74z" fill="#F94615" id="svg_50"/>
    </g>
    <g id="svg_51" transform="matrix(1,0,0,1,47.40399932861328,75.79199981689453)">
        <path d="m0,1c-0.56,0 -1.01,-0.44 -1.01,-1c0,-0.56 0.45,-1 1.01,-1c0.56,0 1.01,0.44 1.01,1c0,0.56 -0.45,1 -1.01,1z" fill="#F94615" id="svg_52"/>
    </g>
    <g id="svg_53" transform="matrix(1,0,0,1,38.895999908447266,76.23200225830078)">
        <path d="m0,1.27c-0.7,0 -1.28,-0.57 -1.28,-1.27c0,-0.7 0.58,-1.27 1.28,-1.27c0.7,0 1.28,0.57 1.28,1.27c0,0.7 -0.58,1.27 -1.28,1.27z" fill="#F94615" id="svg_54"/>
    </g>
    <g id="svg_55" transform="matrix(1,0,0,1,30.509000778198242,74.71499633789062)">
        <path d="m0,1.53c-0.85,0 -1.54,-0.68 -1.54,-1.53c0,-0.85 0.69,-1.53 1.54,-1.53c0.85,0 1.54,0.68 1.54,1.53c0,0.85 -0.69,1.53 -1.54,1.53z" fill="#F94615" id="svg_56"/>
    </g>
    <g id="svg_57" transform="matrix(1,0,0,1,22.71299934387207,71.302001953125)">
        <path d="m0,1.8c-1,0 -1.81,-0.81 -1.81,-1.8c0,-0.99 0.81,-1.8 1.81,-1.8c1,0 1.81,0.81 1.81,1.8c0,0.99 -0.81,1.8 -1.81,1.8z" fill="#F94615" id="svg_58"/>
    </g>
    <g id="svg_59" transform="matrix(1,0,0,1,15.925999641418457,66.19000244140625)">
        <path d="m0,2.05c-1.14,0 -2.06,-0.92 -2.06,-2.05c0,-1.13 0.92,-2.05 2.06,-2.05c1.14,0 2.06,0.92 2.06,2.05c0,1.13 -0.92,2.05 -2.06,2.05z" fill="#F94615" id="svg_60"/>
    </g>
    <g id="svg_61" transform="matrix(1,0,0,1,10.508999824523926,59.66600036621094)">
        <path d="m0,2.2c-1.23,0 -2.22,-0.98 -2.22,-2.2c0,-1.22 0.99,-2.2 2.22,-2.2c1.23,0 2.22,0.98 2.22,2.2c0,1.22 -0.99,2.2 -2.22,2.2z" fill="#F94615" id="svg_62"/>
    </g>
    <g id="svg_63" transform="matrix(1,0,0,1,6.757999897003174,52.07400131225586)">
        <path d="m0,2.32c-1.29,0 -2.34,-1.04 -2.34,-2.32c0,-1.28 1.05,-2.32 2.34,-2.32c1.29,0 2.34,1.04 2.34,2.32c0,1.28 -1.05,2.32 -2.34,2.32z" fill="#F94615" id="svg_64"/>
    </g>
    <g id="svg_65" transform="matrix(1,0,0,1,4.890999794006348,43.821998596191406)">
        <path d="m0,2.37c-1.32,0 -2.39,-1.06 -2.39,-2.37c0,-1.31 1.07,-2.37 2.39,-2.37c1.32,0 2.39,1.06 2.39,2.37c0,1.31 -1.07,2.37 -2.39,2.37z" fill="#F94615" id="svg_66"/>
    </g>
    <g id="svg_67" transform="matrix(1,0,0,1,4.989999771118164,35.36000061035156)">
        <path d="m0,2.37c-1.32,0 -2.39,-1.06 -2.39,-2.37c0,-1.31 1.07,-2.37 2.39,-2.37c1.32,0 2.39,1.06 2.39,2.37c0,1.31 -1.07,2.37 -2.39,2.37z" fill="#F94615" id="svg_68"/>
    </g>
    <g id="svg_69" transform="matrix(1,0,0,1,7.054999828338623,27.149999618530273)">
        <path d="m0,2.32c-1.29,0 -2.34,-1.04 -2.34,-2.32c0,-1.28 1.05,-2.32 2.34,-2.32c1.29,0 2.34,1.04 2.34,2.32c0,1.28 -1.05,2.32 -2.34,2.32z" fill="#F94615" id="svg_70"/>
    </g>
    <g id="svg_71" transform="matrix(1,0,0,1,10.98799991607666,19.645999908447266)">
        <path d="m0,2.2c-1.22,0 -2.22,-0.99 -2.22,-2.2c0,-1.22 1,-2.2 2.22,-2.2c1.22,0 2.22,0.98 2.22,2.2c0,1.21 -1,2.2 -2.22,2.2z" fill="#F94615" id="svg_72"/>
    </g>
    <g id="svg_73" transform="matrix(1,0,0,1,16.559999465942383,13.25)">
        <path d="m0,2.04c-1.13,0 -2.06,-0.91 -2.06,-2.04c0,-1.13 0.93,-2.04 2.06,-2.04c1.13,0 2.06,0.91 2.06,2.04c0,1.13 -0.93,2.04 -2.06,2.04z" fill="#F94615" id="svg_74"/>
    </g>
    <g id="svg_75" transform="matrix(1,0,0,1,23.46500015258789,8.298999786376953)">
        <path d="m0,1.78c-0.99,0 -1.8,-0.79 -1.8,-1.78c0,-0.99 0.81,-1.78 1.8,-1.78c0.99,0 1.8,0.79 1.8,1.78c0,0.99 -0.81,1.78 -1.8,1.78z" fill="#F94615" id="svg_76"/>
    </g>
    <g id="svg_77" transform="matrix(1,0,0,1,31.33799934387207,5.072000026702881)">
        <path d="m0,1.52c-0.85,0 -1.53,-0.68 -1.53,-1.52c0,-0.84 0.68,-1.52 1.53,-1.52c0.85,0 1.53,0.68 1.53,1.52c0,0.84 -0.68,1.52 -1.53,1.52z" fill="#F94615" id="svg_78"/>
    </g>
    <g id="svg_79" transform="matrix(1,0,0,1,39.75699996948242,3.753000020980835)">
        <path d="m0,1.25c-0.7,0 -1.26,-0.56 -1.26,-1.25c0,-0.69 0.56,-1.25 1.26,-1.25c0.7,0 1.26,0.56 1.26,1.25c0,0.69 -0.56,1.25 -1.26,1.25z" fill="#F94615" id="svg_80"/>
    </g>
    <g id="svg_81" transform="matrix(1,0,0,1,48.25699996948242,4.390999794006348)">
        <path d="m0,0.99c-0.55,0 -0.99,-0.44 -0.99,-0.99c0,-0.54 0.44,-0.99 0.99,-0.99c0.55,0 0.99,0.45 0.99,0.99c0,0.55 -0.44,0.99 -0.99,0.99z" fill="#F94615" id="svg_82"/>
    </g>
    <g id="svg_83" transform="matrix(1,0,0,1,56.37300109863281,6.9679999351501465)">
        <path d="m0,0.72c-0.4,0 -0.73,-0.32 -0.73,-0.72c0,-0.4 0.33,-0.72 0.73,-0.72c0.4,0 0.73,0.32 0.73,0.72c0,0.4 -0.33,0.72 -0.73,0.72z" fill="#F94615" id="svg_84"/>
    </g>
    <g id="svg_85" transform="matrix(1,0,0,1,63.6619987487793,11.347999572753906)">
        <path d="m0,0.45c-0.25,0 -0.46,-0.2 -0.46,-0.45c0,-0.25 0.21,-0.45 0.46,-0.45c0.25,0 0.46,0.2 0.46,0.45c0,0.25 -0.21,0.45 -0.46,0.45z" fill="#F94615" id="svg_86"/>
    </g>
    <g id="svg_87" transform="matrix(1,0,0,1,69.73400115966797,17.277000427246094)">
        <path d="m0,0.26c-0.15,0 -0.26,-0.12 -0.26,-0.26c0,-0.15 0.11,-0.26 0.26,-0.26c0.15,0 0.26,0.11 0.26,0.26c0,0.14 -0.11,0.26 -0.26,0.26z" fill="#F94615" id="svg_88"/>
    </g>
    </g>
    <g display="block" id="svg_89" transform="matrix(8.149974822998047,0,0,8.149974822998047,55.99896240234375,58.996788024902344)">
    <g id="svg_90" transform="matrix(1,0,0,1,61.45000076293945,62.547000885009766)">
        <path d="m0,0.37c-0.21,0 -0.38,-0.16 -0.38,-0.37c0,-0.2 0.17,-0.37 0.38,-0.37c0.21,0 0.38,0.17 0.38,0.37c0,0.21 -0.17,0.37 -0.38,0.37z" fill="#F94615" id="svg_91"/>
    </g>
    <g id="svg_92" transform="matrix(1,0,0,1,54.36800003051758,67.23200225830078)">
        <path d="m0,0.69c-0.38,0 -0.69,-0.31 -0.69,-0.69c0,-0.38 0.31,-0.69 0.69,-0.69c0.38,0 0.69,0.31 0.69,0.69c0,0.38 -0.31,0.69 -0.69,0.69z" fill="#F94615" id="svg_93"/>
    </g>
    <g id="svg_94" transform="matrix(1,0,0,1,46.25600051879883,69.7750015258789)">
        <path d="m0,1.01c-0.56,0 -1.01,-0.45 -1.01,-1.01c0,-0.56 0.45,-1.01 1.01,-1.01c0.56,0 1.01,0.45 1.01,1.01c0,0.56 -0.45,1.01 -1.01,1.01z" fill="#F94615" id="svg_95"/>
    </g>
    <g id="svg_96" transform="matrix(1,0,0,1,37.74100112915039,69.98500061035156)">
        <path d="m0,1.33c-0.74,0 -1.34,-0.6 -1.34,-1.33c0,-0.73 0.6,-1.33 1.34,-1.33c0.74,0 1.34,0.6 1.34,1.33c0,0.73 -0.6,1.33 -1.34,1.33z" fill="#F94615" id="svg_97"/>
    </g>
    <g id="svg_98" transform="matrix(1,0,0,1,29.500999450683594,67.8479995727539)">
        <path d="m0,1.64c-0.91,0 -1.65,-0.73 -1.65,-1.64c0,-0.91 0.74,-1.64 1.65,-1.64c0.91,0 1.65,0.73 1.65,1.64c0,0.91 -0.74,1.64 -1.65,1.64z" fill="#F94615" id="svg_99"/>
    </g>
    <g id="svg_100" transform="matrix(1,0,0,1,22.19099998474121,63.516998291015625)">
        <path d="m0,1.96c-1.09,0 -1.98,-0.88 -1.98,-1.96c0,-1.08 0.89,-1.96 1.98,-1.96c1.09,0 1.98,0.88 1.98,1.96c0,1.08 -0.89,1.96 -1.98,1.96z" fill="#F94615" id="svg_101"/>
    </g>
    <g id="svg_102" transform="matrix(1,0,0,1,16.37299919128418,57.349998474121094)">
        <path d="m0,2.18c-1.21,0 -2.19,-0.98 -2.19,-2.18c0,-1.2 0.98,-2.18 2.19,-2.18c1.21,0 2.19,0.98 2.19,2.18c0,1.2 -0.98,2.18 -2.19,2.18z" fill="#F94615" id="svg_103"/>
    </g>
    <g id="svg_104" transform="matrix(1,0,0,1,12.50100040435791,49.82500076293945)">
        <path d="m0,2.32c-1.29,0 -2.34,-1.04 -2.34,-2.32c0,-1.28 1.05,-2.32 2.34,-2.32c1.29,0 2.34,1.04 2.34,2.32c0,1.28 -1.05,2.32 -2.34,2.32z" fill="#F94615" id="svg_105"/>
    </g>
    <g id="svg_106" transform="matrix(1,0,0,1,10.895999908447266,41.51900100708008)">
        <path d="m0,2.39c-1.33,0 -2.4,-1.07 -2.4,-2.39c0,-1.32 1.07,-2.39 2.4,-2.39c1.33,0 2.4,1.07 2.4,2.39c0,1.32 -1.07,2.39 -2.4,2.39z" fill="#F94615" id="svg_107"/>
    </g>
    <g id="svg_108" transform="matrix(1,0,0,1,11.66100025177002,33.09700012207031)">
        <path d="m0,2.35c-1.31,0 -2.37,-1.05 -2.37,-2.35c0,-1.3 1.06,-2.35 2.37,-2.35c1.31,0 2.37,1.05 2.37,2.35c0,1.3 -1.06,2.35 -2.37,2.35z" fill="#F94615" id="svg_109"/>
    </g>
    <g id="svg_110" transform="matrix(1,0,0,1,14.760000228881836,25.214000701904297)">
        <path d="m0,2.26c-1.26,0 -2.28,-1.01 -2.28,-2.26c0,-1.25 1.02,-2.26 2.28,-2.26c1.26,0 2.28,1.01 2.28,2.26c0,1.25 -1.02,2.26 -2.28,2.26z" fill="#F94615" id="svg_111"/>
    </g>
    <g id="svg_112" transform="matrix(1,0,0,1,19.937999725341797,18.506000518798828)">
        <path d="m0,2.07c-1.15,0 -2.08,-0.93 -2.08,-2.07c0,-1.14 0.93,-2.07 2.08,-2.07c1.15,0 2.08,0.93 2.08,2.07c0,1.14 -0.93,2.07 -2.08,2.07z" fill="#F94615" id="svg_113"/>
    </g>
    <g id="svg_114" transform="matrix(1,0,0,1,26.777000427246094,13.477999687194824)">
        <path d="m0,1.77c-0.99,0 -1.79,-0.79 -1.79,-1.77c0,-0.98 0.8,-1.77 1.79,-1.77c0.99,0 1.79,0.79 1.79,1.77c0,0.98 -0.8,1.77 -1.79,1.77z" fill="#F94615" id="svg_115"/>
    </g>
    <g id="svg_116" transform="matrix(1,0,0,1,34.75600051879883,10.53600025177002)">
        <path d="m0,1.45c-0.81,0 -1.46,-0.65 -1.46,-1.45c0,-0.8 0.65,-1.45 1.46,-1.45c0.81,0 1.46,0.65 1.46,1.45c0,0.8 -0.65,1.45 -1.46,1.45z" fill="#F94615" id="svg_117"/>
    </g>
    <g id="svg_118" transform="matrix(1,0,0,1,43.24399948120117,9.90999984741211)">
        <path d="m0,1.13c-0.63,0 -1.14,-0.5 -1.14,-1.13c0,-0.63 0.51,-1.13 1.14,-1.13c0.63,0 1.14,0.5 1.14,1.13c0,0.63 -0.51,1.13 -1.14,1.13z" fill="#F94615" id="svg_119"/>
    </g>
    <g id="svg_120" transform="matrix(1,0,0,1,51.582000732421875,11.63700008392334)">
        <path d="m0,0.81c-0.45,0 -0.82,-0.36 -0.82,-0.81c0,-0.45 0.37,-0.81 0.82,-0.81c0.45,0 0.82,0.36 0.82,0.81c0,0.45 -0.37,0.81 -0.82,0.81z" fill="#F94615" id="svg_121"/>
    </g>
    <g id="svg_122" transform="matrix(1,0,0,1,59.10100173950195,15.602999687194824)">
        <path d="m0,0.49c-0.27,0 -0.5,-0.22 -0.5,-0.49c0,-0.27 0.23,-0.49 0.5,-0.49c0.27,0 0.5,0.22 0.5,0.49c0,0.27 -0.23,0.49 -0.5,0.49z" fill="#F94615" id="svg_123"/>
    </g>
    <g id="svg_124" transform="matrix(1,0,0,1,65.21800231933594,21.47599983215332)">
        <path d="m0,0.25c-0.14,0 -0.25,-0.11 -0.25,-0.25c0,-0.14 0.11,-0.25 0.25,-0.25c0.14,0 0.25,0.11 0.25,0.25c0,0.14 -0.11,0.25 -0.25,0.25z" fill="#F94615" id="svg_125"/>
    </g>
    </g>
    <g display="block" id="svg_126" transform="matrix(8.149974822998047,0,0,8.149974822998047,55.99896240234375,58.996788024902344)">
    <g id="svg_127" transform="matrix(1,0,0,1,59.678001403808594,55.61199951171875)">
        <path d="m0,0.28c-0.16,0 -0.28,-0.12 -0.28,-0.28c0,-0.15 0.12,-0.28 0.28,-0.28c0.16,0 0.28,0.13 0.28,0.28c0,0.16 -0.12,0.28 -0.28,0.28z" fill="#F94615" id="svg_128"/>
    </g>
    <g id="svg_129" transform="matrix(1,0,0,1,53.119998931884766,60.97700119018555)">
        <path d="m0,0.61c-0.34,0 -0.62,-0.27 -0.62,-0.61c0,-0.34 0.28,-0.61 0.62,-0.61c0.34,0 0.62,0.27 0.62,0.61c0,0.34 -0.28,0.61 -0.62,0.61z" fill="#F94615" id="svg_130"/>
    </g>
    <g id="svg_131" transform="matrix(1,0,0,1,45.10100173950195,63.757999420166016)">
        <path d="m0,1.01c-0.56,0 -1.02,-0.45 -1.02,-1.01c0,-0.56 0.46,-1.01 1.02,-1.01c0.56,0 1.02,0.45 1.02,1.01c0,0.56 -0.46,1.01 -1.02,1.01z" fill="#F94615" id="svg_132"/>
    </g>
    <g id="svg_133" transform="matrix(1,0,0,1,36.60100173950195,63.619998931884766)">
        <path d="m0,1.41c-0.79,0 -1.42,-0.63 -1.42,-1.41c0,-0.78 0.63,-1.41 1.42,-1.41c0.79,0 1.42,0.63 1.42,1.41c0,0.78 -0.63,1.41 -1.42,1.41z" fill="#F94615" id="svg_134"/>
    </g>
    <g id="svg_135" transform="matrix(1,0,0,1,28.666000366210938,60.56700134277344)">
        <path d="m0,1.81c-1.01,0 -1.83,-0.81 -1.83,-1.81c0,-1 0.82,-1.81 1.83,-1.81c1.01,0 1.83,0.81 1.83,1.81c0,1 -0.82,1.81 -1.83,1.81z" fill="#F94615" id="svg_136"/>
    </g>
    <g id="svg_137" transform="matrix(1,0,0,1,22.291000366210938,54.98699951171875)">
        <path d="m0,2.14c-1.19,0 -2.15,-0.96 -2.15,-2.14c0,-1.18 0.96,-2.14 2.15,-2.14c1.19,0 2.15,0.96 2.15,2.14c0,1.18 -0.96,2.14 -2.15,2.14z" fill="#F94615" id="svg_138"/>
    </g>
    <g id="svg_139" transform="matrix(1,0,0,1,18.243999481201172,47.56800079345703)">
        <path d="m0,2.33c-1.29,0 -2.34,-1.05 -2.34,-2.33c0,-1.28 1.05,-2.33 2.34,-2.33c1.29,0 2.34,1.05 2.34,2.33c0,1.28 -1.05,2.33 -2.34,2.33z" fill="#F94615" id="svg_140"/>
    </g>
    <g id="svg_141" transform="matrix(1,0,0,1,17.038000106811523,39.2130012512207)">
        <path d="m0,2.4c-1.33,0 -2.41,-1.08 -2.41,-2.4c0,-1.32 1.08,-2.4 2.41,-2.4c1.33,0 2.41,1.08 2.41,2.4c0,1.32 -1.08,2.4 -2.41,2.4z" fill="#F94615" id="svg_142"/>
    </g>
    <g id="svg_143" transform="matrix(1,0,0,1,18.804000854492188,30.95199966430664)">
        <path d="m0,2.31c-1.29,0 -2.33,-1.03 -2.33,-2.31c0,-1.28 1.04,-2.31 2.33,-2.31c1.29,0 2.33,1.03 2.33,2.31c0,1.28 -1.04,2.31 -2.33,2.31z" fill="#F94615" id="svg_144"/>
    </g>
    <g id="svg_145" transform="matrix(1,0,0,1,23.3439998626709,23.816999435424805)">
        <path d="m0,2.1c-1.17,0 -2.12,-0.94 -2.12,-2.1c0,-1.16 0.95,-2.1 2.12,-2.1c1.17,0 2.12,0.94 2.12,2.1c0,1.16 -0.95,2.1 -2.12,2.1z" fill="#F94615" id="svg_146"/>
    </g>
    <g id="svg_147" transform="matrix(1,0,0,1,30.077999114990234,18.67099952697754)">
        <path d="m0,1.75c-0.98,0 -1.77,-0.78 -1.77,-1.75c0,-0.97 0.79,-1.75 1.77,-1.75c0.98,0 1.77,0.78 1.77,1.75c0,0.97 -0.79,1.75 -1.77,1.75z" fill="#F94615" id="svg_148"/>
    </g>
    <g id="svg_149" transform="matrix(1,0,0,1,38.1870002746582,16.158000946044922)">
        <path d="m0,1.35c-0.75,0 -1.36,-0.6 -1.36,-1.35c0,-0.75 0.61,-1.35 1.36,-1.35c0.75,0 1.36,0.6 1.36,1.35c0,0.75 -0.61,1.35 -1.36,1.35z" fill="#F94615" id="svg_150"/>
    </g>
    <g id="svg_151" transform="matrix(1,0,0,1,46.676998138427734,16.575000762939453)">
        <path d="m0,0.95c-0.53,0 -0.96,-0.42 -0.96,-0.95c0,-0.52 0.43,-0.95 0.96,-0.95c0.53,0 0.96,0.43 0.96,0.95c0,0.53 -0.43,0.95 -0.96,0.95z" fill="#F94615" id="svg_152"/>
    </g>
    <g id="svg_153" transform="matrix(1,0,0,1,54.486000061035156,19.87700080871582)">
        <path d="m0,0.55c-0.3,0 -0.55,-0.25 -0.55,-0.55c0,-0.3 0.25,-0.55 0.55,-0.55c0.31,0 0.55,0.25 0.55,0.55c0,0.3 -0.24,0.55 -0.55,0.55z" fill="#F94615" id="svg_154"/>
    </g>
    <g id="svg_155" transform="matrix(1,0,0,1,60.676998138427734,25.659000396728516)">
        <path d="m0,0.24c-0.13,0 -0.24,-0.11 -0.24,-0.24c0,-0.13 0.11,-0.24 0.24,-0.24c0.13,0 0.24,0.11 0.24,0.24c0,0.13 -0.11,0.24 -0.24,0.24z" fill="#F94615" id="svg_156"/>
    </g>
    </g>
    <g display="block" id="svg_157" transform="matrix(8.149974822998047,0,0,8.149974822998047,55.99896240234375,58.996788024902344)">
    <g id="svg_158" transform="matrix(1,0,0,1,24.07900047302246,45.58000183105469)">
        <path d="m0,0.07c-0.04,0 -0.07,-0.03 -0.07,-0.07c0,-0.04 0.03,-0.07 0.07,-0.07c0.04,0 0.07,0.03 0.07,0.07c0,0.04 -0.03,0.07 -0.07,0.07z" fill="#F94615" id="svg_159"/>
    </g>
    <g id="svg_160" transform="matrix(1,0,0,1,26.667999267578125,50.7140007019043)">
        <path d="m0,0.23c-0.13,0 -0.23,-0.1 -0.23,-0.23c0,-0.13 0.1,-0.23 0.23,-0.23c0.13,0 0.23,0.1 0.23,0.23c0,0.13 -0.1,0.23 -0.23,0.23z" fill="#F94615" id="svg_161"/>
    </g>
    <g id="svg_162" transform="matrix(1,0,0,1,30.69099998474121,54.680999755859375)">
        <path d="m0,0.49c-0.27,0 -0.49,-0.22 -0.49,-0.49c0,-0.27 0.22,-0.49 0.49,-0.49c0.27,0 0.49,0.22 0.49,0.49c0,0.27 -0.22,0.49 -0.49,0.49z" fill="#F94615" id="svg_163"/>
    </g>
    <g id="svg_164" transform="matrix(1,0,0,1,35.75299835205078,57.21699905395508)">
        <path d="m0,0.85c-0.47,0 -0.85,-0.38 -0.85,-0.85c0,-0.47 0.38,-0.85 0.85,-0.85c0.47,0 0.85,0.38 0.85,0.85c0,0.47 -0.38,0.85 -0.85,0.85z" fill="#F94615" id="svg_165"/>
    </g>
    <g id="svg_166" transform="matrix(1,0,0,1,41.36800003051758,58.06100082397461)">
        <path d="m0,1.2c-0.67,0 -1.21,-0.53 -1.21,-1.2c0,-0.67 0.54,-1.2 1.21,-1.2c0.67,0 1.21,0.53 1.21,1.2c0,0.67 -0.54,1.2 -1.21,1.2z" fill="#F94615" id="svg_167"/>
    </g>
    <g id="svg_168" transform="matrix(1,0,0,1,46.96799850463867,57.141998291015625)">
        <path d="m0,1.56c-0.87,0 -1.57,-0.7 -1.57,-1.56c0,-0.86 0.7,-1.56 1.57,-1.56c0.87,0 1.57,0.7 1.57,1.56c0,0.86 -0.7,1.56 -1.57,1.56z" fill="#F94615" id="svg_169"/>
    </g>
    <g id="svg_170" transform="matrix(1,0,0,1,51.99700164794922,54.5369987487793)">
        <path d="m0,1.92c-1.07,0 -1.93,-0.86 -1.93,-1.92c0,-1.06 0.86,-1.92 1.93,-1.92c1.07,0 1.93,0.86 1.93,1.92c0,1.06 -0.86,1.92 -1.93,1.92z" fill="#F94615" id="svg_171"/>
    </g>
    <g id="svg_172" transform="matrix(1,0,0,1,55.96500015258789,50.51499938964844)">
        <path d="m0,2.18c-1.21,0 -2.19,-0.98 -2.19,-2.18c0,-1.2 0.98,-2.18 2.19,-2.18c1.21,0 2.19,0.98 2.19,2.18c0,1.2 -0.98,2.18 -2.19,2.18z" fill="#F94615" id="svg_173"/>
    </g>
    <g id="svg_174" transform="matrix(1,0,0,1,58.48400115966797,45.349998474121094)">
        <path d="m0,2.33c-1.3,0 -2.35,-1.04 -2.35,-2.33c0,-1.29 1.05,-2.33 2.35,-2.33c1.3,0 2.35,1.04 2.35,2.33c0,1.29 -1.05,2.33 -2.35,2.33z" fill="#F94615" id="svg_175"/>
    </g>
    <g id="svg_176" transform="matrix(1,0,0,1,59.29600143432617,39.76300048828125)">
        <path d="m0,2.4c-1.34,0 -2.42,-1.07 -2.42,-2.4c0,-1.33 1.08,-2.4 2.42,-2.4c1.34,0 2.42,1.07 2.42,2.4c0,1.33 -1.08,2.4 -2.42,2.4z" fill="#F94615" id="svg_177"/>
    </g>
    <g id="svg_178" transform="matrix(1,0,0,1,58.33000183105469,34.209999084472656)">
        <path d="m0,2.33c-1.29,0 -2.34,-1.05 -2.34,-2.33c0,-1.28 1.05,-2.33 2.34,-2.33c1.29,0 2.34,1.05 2.34,2.33c0,1.28 -1.05,2.33 -2.34,2.33z" fill="#F94615" id="svg_179"/>
    </g>
    <g id="svg_180" transform="matrix(1,0,0,1,55.67100143432617,29.236000061035156)">
        <path d="m0,2.17c-1.21,0 -2.18,-0.97 -2.18,-2.17c0,-1.2 0.97,-2.17 2.18,-2.17c1.21,0 2.18,0.97 2.18,2.17c0,1.2 -0.97,2.17 -2.18,2.17z" fill="#F94615" id="svg_181"/>
    </g>
    <g id="svg_182" transform="matrix(1,0,0,1,51.59199905395508,25.325000762939453)">
        <path d="m0,1.9c-1.06,0 -1.91,-0.85 -1.91,-1.9c0,-1.05 0.85,-1.9 1.91,-1.9c1.06,0 1.91,0.85 1.91,1.9c0,1.05 -0.85,1.9 -1.91,1.9z" fill="#F94615" id="svg_183"/>
    </g>
    <g id="svg_184" transform="matrix(1,0,0,1,46.49399948120117,22.860000610351562)">
        <path d="m0,1.54c-0.86,0 -1.55,-0.69 -1.55,-1.54c0,-0.85 0.69,-1.54 1.55,-1.54c0.86,0 1.55,0.69 1.55,1.54c0,0.85 -0.69,1.54 -1.55,1.54z" fill="#F94615" id="svg_185"/>
    </g>
    <g id="svg_186" transform="matrix(1,0,0,1,40.875999450683594,22.0939998626709)">
        <path d="m0,1.18c-0.66,0 -1.19,-0.53 -1.19,-1.18c0,-0.65 0.53,-1.18 1.19,-1.18c0.65,0 1.19,0.53 1.19,1.18c0,0.65 -0.54,1.18 -1.19,1.18z" fill="#F94615" id="svg_187"/>
    </g>
    <g id="svg_188" transform="matrix(1,0,0,1,35.28900146484375,23.08799934387207)">
        <path d="m0,0.82c-0.46,0 -0.83,-0.37 -0.83,-0.82c0,-0.45 0.37,-0.82 0.83,-0.82c0.46,0 0.83,0.37 0.83,0.82c0,0.45 -0.37,0.82 -0.83,0.82z" fill="#F94615" id="svg_189"/>
    </g>
    <g id="svg_190" transform="matrix(1,0,0,1,30.297000885009766,25.761999130249023)">
        <path d="m0,0.46c-0.26,0 -0.46,-0.21 -0.46,-0.46c0,-0.26 0.2,-0.46 0.46,-0.46c0.26,0 0.46,0.2 0.46,0.46c0,0.25 -0.2,0.46 -0.46,0.46z" fill="#F94615" id="svg_191"/>
    </g>
    <g id="svg_192" transform="matrix(1,0,0,1,26.382999420166016,29.95800018310547)">
        <path d="m0,0.21c-0.12,0 -0.21,-0.09 -0.21,-0.21c0,-0.12 0.09,-0.21 0.21,-0.21c0.12,0 0.21,0.09 0.21,0.21c0,0.12 -0.09,0.21 -0.21,0.21z" fill="#F94615" id="svg_193"/>
    </g>
    <g id="svg_194" transform="matrix(1,0,0,1,23.933000564575195,34.9119987487793)">
        <path d="m0,0.07c-0.04,0 -0.07,-0.03 -0.07,-0.07c0,-0.04 0.03,-0.07 0.07,-0.07c0.04,0 0.07,0.03 0.07,0.07c0,0.04 -0.03,0.07 -0.07,0.07z" fill="#F94615" id="svg_195"/>
    </g>
    </g>
    </g>
    <use id="svg_212" transform="matrix(2.93887 0 0 2.93887 0 0)" x="0" xlink:href="#svg_211" y="0"/>
    <g id="svg_197" transform="matrix(2.31918 0 0 2.31918 461.206 225.041)">
    <path d="m14.33,59.42c-3.53,0 -6.76,-0.46 -9.58,-1.37c-2.88,-0.92 -5.14,-2.14 -6.96,-3.67c-1.82,-1.52 -3.13,-3.25 -4.08,-5.13c-0.96,-1.89 -1.42,-3.92 -1.42,-6.01c0,0 7.67,0 7.67,0c0.05,2.9 1.36,5.34 3.88,7.28c2.52,1.93 6.05,2.9 10.49,2.9c4.19,0 7.36,-0.77 9.58,-2.29c2.22,-1.53 3.33,-3.61 3.33,-6.31c0,-2.7 -1.11,-4.63 -3.33,-5.8c-2.22,-1.17 -5.75,-2.13 -10.59,-2.85c-2.72,-0.4 -5.09,-0.86 -7.11,-1.47c-2.02,-0.61 -3.98,-1.43 -5.8,-2.49c-1.81,-1.07 -3.23,-2.45 -4.18,-4.17c-0.96,-1.73 -1.42,-3.77 -1.42,-6.11c0,-4.12 1.62,-7.48 4.84,-10.12c3.23,-2.65 7.87,-3.97 13.87,-3.97c6,0 10.89,1.32 14.58,4.02c3.68,2.7 5.54,6.15 5.54,10.38c0,0 -7.86,0 -7.86,0c-0.16,-2.5 -1.32,-4.48 -3.48,-5.95c-2.17,-1.48 -5.1,-2.24 -8.78,-2.24c-3.68,0 -6.2,0.71 -8.07,2.18c-1.86,1.48 -2.77,3.31 -2.77,5.55c0,2.24 0.91,4.22 2.77,5.39c1.87,1.17 5.35,2.14 10.39,2.95c1.57,0.2 2.93,0.46 4.09,0.66c1.16,0.21 2.42,0.51 3.88,0.92c1.46,0.4 2.67,0.81 3.68,1.27c1.01,0.46 2.02,1.07 3.08,1.78c1.06,0.71 1.91,1.52 2.57,2.39c0.65,0.87 1.16,1.93 1.56,3.15c0.41,1.23 0.61,2.6 0.61,4.12c0,4.79 -1.92,8.5 -5.7,11.09c-3.78,2.6 -8.93,3.87 -15.33,3.87c0,0 0.05,0.05 0.05,0.05z" fill="#FA4616" id="svg_198"/>
    </g>
    <g id="svg_199" transform="matrix(2.31918 0 0 2.31918 583.007 242.915)">
    <path d="m13.8,44.85c5.45,0 10.09,-1.78 13.87,-5.34c3.78,-3.57 5.7,-8.09 5.7,-13.59c0,-5.49 -1.92,-9.92 -5.7,-13.48c-3.78,-3.61 -8.42,-5.39 -13.92,-5.39c-5.45,0 -10.04,1.83 -13.82,5.5c-3.78,3.66 -5.7,8.14 -5.7,13.37c0,5.24 1.92,9.87 5.75,13.48c3.84,3.62 8.43,5.45 13.87,5.45c0,0 -0.05,0 -0.05,0zm-27.53,22.22c0,0 0,-65.56 0,-65.56c0,0 7.66,0 7.66,0c0,0 0,11.09 0,11.09c1.92,-3.67 4.74,-6.62 8.47,-8.96c3.74,-2.29 7.92,-3.45 12.61,-3.45c4.89,0 9.38,1.11 13.41,3.4c4.04,2.29 7.16,5.4 9.48,9.36c2.27,3.92 3.43,8.24 3.43,12.97c0,4.73 -1.16,9.06 -3.43,13.03c-2.27,3.91 -5.44,7.07 -9.42,9.36c-4.04,2.28 -8.48,3.4 -13.32,3.4c-4.54,0 -8.67,-1.12 -12.45,-3.3c-3.79,-2.19 -6.61,-5.14 -8.53,-8.85c0,0 0.16,5.44 0.16,5.44c0,0 0,22.07 0,22.07c0,0 -8.07,0 -8.07,0z" fill="#FA4616" id="svg_200"/>
    </g>
    <g id="svg_201" transform="matrix(2.31918 0 0 2.31918 719.252 225.22)">
    <path d="m13.8,52.43c5.5,0 10.14,-1.84 13.92,-5.45c3.78,-3.61 5.7,-8.09 5.7,-13.43c0,-5.34 -1.92,-9.76 -5.75,-13.37c-3.84,-3.67 -8.42,-5.5 -13.87,-5.5c-5.45,0 -10.09,1.78 -13.87,5.39c-3.78,3.57 -5.7,8.09 -5.7,13.48c0,5.4 1.92,10.02 5.7,13.59c3.78,3.56 8.42,5.29 13.87,5.29zm-1.72,6.91c-4.73,0 -9.12,-1.17 -13.05,-3.4c-3.99,-2.29 -7.06,-5.4 -9.33,-9.36c-2.27,-3.97 -3.38,-8.29 -3.38,-12.98c0,-4.67 1.11,-9 3.38,-12.97c2.27,-3.91 5.34,-7.07 9.33,-9.35c3.98,-2.29 8.32,-3.41 13.01,-3.41c4.68,0 9.22,1.12 13.06,3.35c3.83,2.24 6.7,5.24 8.57,9.06c0,0 0,-11.09 0,-11.09c0,0 7.61,0 7.61,0c0,0 0,48.88 0,48.88c0,0 -7.61,0 -7.61,0c0,0 0,-10.99 0,-10.99c-1.87,3.82 -4.69,6.82 -8.52,9.01c-3.84,2.19 -8.17,3.3 -13.07,3.3c0,0 0,-0.05 0,-0.05z" fill="#FA4616" id="svg_202"/>
    </g>
    <g id="svg_203" transform="matrix(2.31918 0 0 2.31918 840.823 225.041)">
    <path d="m14.28,59.42c-3.53,0 -6.76,-0.46 -9.58,-1.37c-2.83,-0.92 -5.14,-2.14 -6.96,-3.67c-1.77,-1.52 -3.13,-3.25 -4.09,-5.13c-0.95,-1.89 -1.41,-3.92 -1.41,-6.01c0,0 7.67,0 7.67,0c0.05,2.9 1.36,5.34 3.93,7.28c2.57,1.93 6.05,2.9 10.49,2.9c4.18,0 7.36,-0.77 9.58,-2.29c2.22,-1.53 3.33,-3.61 3.33,-6.31c0,-2.7 -1.11,-4.63 -3.33,-5.8c-2.22,-1.17 -5.75,-2.13 -10.59,-2.85c-2.72,-0.4 -5.09,-0.86 -7.11,-1.47c-2.02,-0.61 -3.98,-1.43 -5.8,-2.49c-1.81,-1.07 -3.23,-2.45 -4.18,-4.17c-0.96,-1.73 -1.42,-3.77 -1.42,-6.11c0,-4.12 1.62,-7.48 4.84,-10.12c3.23,-2.65 7.87,-3.97 13.87,-3.97c6,0 10.89,1.32 14.58,4.02c3.68,2.7 5.54,6.15 5.54,10.38c0,0 -7.86,0 -7.86,0c-0.15,-2.5 -1.32,-4.48 -3.48,-5.95c-2.17,-1.48 -5.1,-2.24 -8.78,-2.24c-3.68,0 -6.2,0.71 -8.07,2.18c-1.86,1.48 -2.77,3.31 -2.77,5.55c0,2.24 0.91,4.22 2.77,5.39c1.87,1.17 5.35,2.14 10.39,2.95c1.57,0.2 2.93,0.46 4.09,0.66c1.16,0.21 2.42,0.51 3.88,0.92c1.46,0.4 2.67,0.81 3.68,1.27c1.01,0.46 2.02,1.07 3.13,1.78c1.06,0.71 1.91,1.52 2.57,2.39c0.65,0.87 1.16,1.93 1.56,3.15c0.4,1.23 0.61,2.6 0.61,4.12c0,4.79 -1.92,8.5 -5.7,11.09c-3.78,2.6 -8.93,3.87 -15.33,3.87c0,0 -0.05,0.05 -0.05,0.05z" fill="#FA4616" id="svg_204"/>
    </g>
    <g id="svg_205" transform="matrix(2.31918 0 0 2.31918 949.583 225.041)">
    <path d="m14.28,59.42c-3.53,0 -6.76,-0.46 -9.58,-1.37c-2.83,-0.92 -5.14,-2.14 -6.96,-3.67c-1.77,-1.52 -3.13,-3.25 -4.09,-5.13c-0.95,-1.89 -1.41,-3.92 -1.41,-6.01c0,0 7.67,0 7.67,0c0.05,2.9 1.36,5.34 3.93,7.28c2.57,1.93 6.05,2.9 10.49,2.9c4.18,0 7.36,-0.77 9.58,-2.29c2.22,-1.53 3.33,-3.61 3.33,-6.31c0,-2.7 -1.11,-4.63 -3.33,-5.8c-2.22,-1.17 -5.75,-2.13 -10.59,-2.85c-2.72,-0.4 -5.09,-0.86 -7.11,-1.47c-2.02,-0.61 -3.98,-1.43 -5.8,-2.49c-1.81,-1.07 -3.22,-2.45 -4.18,-4.17c-0.96,-1.73 -1.42,-3.77 -1.42,-6.11c0,-4.12 1.62,-7.48 4.84,-10.12c3.23,-2.65 7.87,-3.97 13.87,-3.97c6,0 10.89,1.32 14.58,4.02c3.68,2.7 5.54,6.15 5.54,10.38c0,0 -7.86,0 -7.86,0c-0.16,-2.5 -1.31,-4.48 -3.48,-5.95c-2.17,-1.48 -5.1,-2.24 -8.78,-2.24c-3.68,0 -6.2,0.71 -8.07,2.18c-1.86,1.48 -2.77,3.31 -2.77,5.55c0,2.44 0.91,4.22 2.77,5.39c1.87,1.17 5.35,2.14 10.39,2.95c1.57,0.2 2.93,0.46 4.09,0.66c1.16,0.21 2.42,0.51 3.88,0.92c1.46,0.4 2.67,0.81 3.68,1.27c1.01,0.46 2.02,1.07 3.13,1.78c1.06,0.71 1.91,1.52 2.57,2.39c0.65,0.87 1.16,1.93 1.56,3.15c0.4,1.23 0.61,2.6 0.61,4.12c0,4.79 -1.92,8.5 -5.7,11.09c-3.78,2.6 -8.93,3.87 -15.33,3.87c0,0 -0.05,0.05 -0.05,0.05z" fill="#FA4616" id="svg_206"/>
    </g>
    <g id="svg_207" transform="matrix(2.31918 0 0 2.31918 1062.26 226.693)">
    <path d="m13.9,58.71c-7.41,0 -13.26,-1.99 -17.55,-6c-4.28,-3.97 -6.45,-10.03 -6.45,-18.11c0,0 0,-26.1 0,-26.1c0,0 7.92,0 7.92,0c0,0 0,25.94 0,25.94c0,5.7 1.36,10.02 4.13,12.97c2.77,2.96 6.71,4.43 11.85,4.43c5.14,0 9.08,-1.47 11.85,-4.37c2.77,-2.95 4.14,-7.28 4.14,-12.97c0,0 0,-25.95 0,-25.95c0,0 7.91,0 7.91,0c0,0 0,26.1 0,26.1c0,8.03 -2.16,14.09 -6.45,18.11c-4.29,4.01 -10.09,6 -17.35,6c0,0 0,-0.05 0,-0.05z" fill="#FA4616" id="svg_208"/>
    </g>
    <style>
    @import url('https://fonts.googleapis.com/css2?family=Poppins:wght@100;400');
    </style>
    <text fill="#F94615" font-family="'Poppins', Sans-serif" font-size="190" id="svg_213" stroke="#F94615" stroke-width="0" text-anchor="middle" x="770" xml:space="preserve" y="193">Acervo</text>
    </g>
</g>
</svg>                
